# xmcd
#
# Track frame offsets:
#	150
#	17935
#	35588
#	53868
#	70999
#	85206
#
# Disc length: 1382 seconds
# Revision: 0
# Processed by: cddbd v1.5.2PL0 Copyright (c) Steve Scherf et al.
# Submitted via: dBpowerAMP V12.0
#
DISCID=4d056406
DTITLE=Kalli Ashton - Wings
DYEAR=2015
DGENRE=Americana
TTITLE0=Worth Your While
TTITLE1=Battered and Bruised
TTITLE2=Hold Me Close
TTITLE3=Journey of Life
TTITLE4=Summer Romance
TTITLE5=Long days and Lonely Nights
EXTD=
EXTT0=
EXTT1=
EXTT2=
EXTT3=
EXTT4=
EXTT5=
PLAYORDER=
